<?xml version="1.0" encoding="utf-8"?>
<svg viewBox="70.7189 63.561 167.95 43.513" width="1700" height="450" xmlns="http://www.w3.org/2000/svg">
    <mask id="d227ac9f-b852-477b-8730-53cd0aad8242">
        <g fill="white">
            <rect data-gra="graph-name-bg" stroke-width="2" class="i-icon-bg" x="0" y="0" width="129.11901092529297"
                height="43.51300048828125" />
        </g>
        <g transform="translate(5,7)" fill="black">
            <g data-gra="path-name">
                <g transform="scale(1.0999999999999992)">
                    <path
                        d="M27.57-15.15L27.57-15.15Q27.64-14.60 27.70-14.04Q27.75-13.49 27.75-12.94L27.75-12.94Q27.75-10.17 26.70-7.72Q25.65-5.27 23.83-3.45Q22.00-1.62 19.55-0.57Q17.10 0.48 14.34 0.48L14.34 0.48Q11.57 0.48 9.12-0.57Q6.67-1.62 4.85-3.45Q3.02-5.27 1.97-7.72Q0.92-10.17 0.92-12.94L0.92-12.94Q0.92-15.70 1.97-18.15Q3.02-20.60 4.85-22.43Q6.67-24.25 9.12-25.30Q11.57-26.35 14.34-26.35L14.34-26.35Q17.14-26.35 19.57-25.30Q22.00-24.25 23.81-22.41L23.81-22.41L20.71-19.28Q19.42-20.57 17.78-21.25Q16.14-21.93 14.34-21.93L14.34-21.93Q12.53-21.93 10.91-21.25Q9.29-20.57 8.00-19.28L8.00-19.28Q6.71-17.99 6.03-16.37Q5.34-14.74 5.34-12.94L5.34-12.94Q5.34-11.13 6.03-9.49Q6.71-7.85 8.00-6.56L8.00-6.56Q9.29-5.27 10.91-4.61Q12.53-3.94 14.34-3.94L14.34-3.94Q16.14-3.94 17.78-4.61Q19.42-5.27 20.71-6.56L20.71-6.56Q22.45-8.37 23.07-10.73L23.07-10.73L11.13-10.73L12.24-15.15L27.57-15.15ZM50.98-25.84L50.98-25.84L55.80-25.84L55.80-0.04L51.38-0.04L51.38-18.32L42.87-5.16L34.39-18.32L34.39-0.04L29.97-0.04L29.97-25.84L34.79-25.84L42.87-13.31L50.98-25.84ZM73.98-25.80L73.98-25.80L85.62 0L80.76 0L78.77-4.42L78.77-4.42L76.78-8.85L76.78-8.85L71.54-20.42L66.31-8.85L73.02-8.85L75.01-4.42L64.32-4.42L62.33 0L57.46 0L69.11-25.80L73.98-25.80ZM91.89-25.76L91.89-25.76L91.89 0L87.47 0L87.47-25.76L91.89-25.76ZM99.08-4.42L99.08-4.42L109.21-4.42L109.21 0L99.08 0L94.65 0L94.65-4.42L94.65-25.76L99.08-25.76L99.08-4.42Z"
                        transform="translate(-0.9214743589743591, 26.35416666666667)" />
                </g>
            </g>
        </g>
    </mask>
    <g data-v-0dd9719b="" fill="#F0C244" class="endsvg"
        transform="matrix(1, 0, 0, 1, 70.71888075350047, 63.560971253528756)">
        <g class="tp-name">
            <g>
                <rect data-gra="graph-name-bg" stroke-width="2" class="i-icon-bg" x="0" y="0" width="167.95001220703125"
                    height="43.51300048828125" fill-opacity="0" />
            </g>
            <g transform="translate(0,0)">
                <g data-gra="path-name-bg" mask="url(#d227ac9f-b852-477b-8730-53cd0aad8242)">
                    <g>
                        <rect data-gra="graph-name-bg" stroke-width="2" class="i-icon-bg" x="0" y="0"
                            width="129.11901092529297" height="43.51300048828125" />
                    </g>
                    <g transform="translate(5,7)">
                        <g data-gra="path-name" fill="#F0C244">
                            <g transform="scale(1.0999999999999992)">
                                <path
                                    d="M27.57-15.15L27.57-15.15Q27.64-14.60 27.70-14.04Q27.75-13.49 27.75-12.94L27.75-12.94Q27.75-10.17 26.70-7.72Q25.65-5.27 23.83-3.45Q22.00-1.62 19.55-0.57Q17.10 0.48 14.34 0.48L14.34 0.48Q11.57 0.48 9.12-0.57Q6.67-1.62 4.85-3.45Q3.02-5.27 1.97-7.72Q0.92-10.17 0.92-12.94L0.92-12.94Q0.92-15.70 1.97-18.15Q3.02-20.60 4.85-22.43Q6.67-24.25 9.12-25.30Q11.57-26.35 14.34-26.35L14.34-26.35Q17.14-26.35 19.57-25.30Q22.00-24.25 23.81-22.41L23.81-22.41L20.71-19.28Q19.42-20.57 17.78-21.25Q16.14-21.93 14.34-21.93L14.34-21.93Q12.53-21.93 10.91-21.25Q9.29-20.57 8.00-19.28L8.00-19.28Q6.71-17.99 6.03-16.37Q5.34-14.74 5.34-12.94L5.34-12.94Q5.34-11.13 6.03-9.49Q6.71-7.85 8.00-6.56L8.00-6.56Q9.29-5.27 10.91-4.61Q12.53-3.94 14.34-3.94L14.34-3.94Q16.14-3.94 17.78-4.61Q19.42-5.27 20.71-6.56L20.71-6.56Q22.45-8.37 23.07-10.73L23.07-10.73L11.13-10.73L12.24-15.15L27.57-15.15ZM50.98-25.84L50.98-25.84L55.80-25.84L55.80-0.04L51.38-0.04L51.38-18.32L42.87-5.16L34.39-18.32L34.39-0.04L29.97-0.04L29.97-25.84L34.79-25.84L42.87-13.31L50.98-25.84ZM73.98-25.80L73.98-25.80L85.62 0L80.76 0L78.77-4.42L78.77-4.42L76.78-8.85L76.78-8.85L71.54-20.42L66.31-8.85L73.02-8.85L75.01-4.42L64.32-4.42L62.33 0L57.46 0L69.11-25.80L73.98-25.80ZM91.89-25.76L91.89-25.76L91.89 0L87.47 0L87.47-25.76L91.89-25.76ZM99.08-4.42L99.08-4.42L109.21-4.42L109.21 0L99.08 0L94.65 0L94.65-4.42L94.65-25.76L99.08-25.76L99.08-4.42Z"
                                    transform="translate(-0.9214743589743591, 26.35416666666667)" />
                            </g>
                        </g>
                    </g>
                </g>
                <g data-gra="path-name-1-bg" transform="translate(129.11900329589844,0)">
                    <g>
                        <rect data-gra="graph-name-bg" stroke-width="2" class="i-icon-bg" x="0" y="0"
                            width="38.831003189086914" height="43.51300048828125" fill-opacity="0" />
                    </g>
                    <g transform="translate(5,7)">
                        <rect data-gra="graph-name-bg" x="0" y="-7" width="28.83100128173828" height="2"
                            fill="#F0C244" />
                        <rect data-gra="graph-name-bg" x="0" y="34.51300048828125" width="28.83100128173828" height="2"
                            fill="#F0C244" />
                        <g data-gra="path-name-1" fill="#F0C244">
                            <g transform="scale(1.0999999999999992)">
                                <path
                                    d="M5.90-25.76L5.90-25.76L5.90 0L1.47 0L1.47-25.76L5.90-25.76ZM27.68-25.80L27.68-25.80L27.68-21.38L20.13-21.38L20.13 0L15.70 0L15.70-21.38L8.11-21.38L8.11-25.80L15.70-25.80L20.13-25.80L27.68-25.80Z"
                                    transform="translate(-1.4743589743589747, 26.35416666666667)" />
                            </g>
                        </g>
                    </g>
                </g>
            </g>
        </g>
    </g>
</svg>